name Walk6.mot
datacolumns 19
datarows 22
range 1.71000000 1.73100000
endheader

                time	   L_ground_force_vx	   L_ground_force_vy	   L_ground_force_vz	   L_ground_force_px	   L_ground_force_py	   L_ground_force_pz	   R_ground_force_vx	   R_ground_force_vy	   R_ground_force_vz	   R_ground_force_px	   R_ground_force_py	   R_ground_force_pz	   L_ground_torque_x	   L_ground_torque_y	   L_ground_torque_z	   R_ground_torque_x	   R_ground_torque_y	   R_ground_torque_z	
          1.71000000	         19.01132025	        941.68646685	         59.56334051	         -0.16627731	          0.00000000	         -0.01190289	         -0.00658417	          0.16509092	          0.01971763	          0.00017138	          0.00000000	          0.00004680	          0.00000000	         -2.38567480	          0.00000000	          0.00000000	         -0.00000940	          0.00000000	
          1.71100000	         19.63339646	        943.83118282	         59.75761652	         -0.16605062	          0.00000000	         -0.01194761	         -0.00795632	          0.18241305	          0.02150556	          0.00018445	          0.00000000	          0.00005032	          0.00000000	         -2.40369333	          0.00000000	          0.00000000	          0.00015342	          0.00000000	
          1.71200000	         20.27037101	        945.99151921	         59.95531594	         -0.16582689	          0.00000000	         -0.01199159	         -0.00942311	          0.20059150	          0.02337082	          0.00019798	          0.00000000	          0.00005395	          0.00000000	         -2.42210169	          0.00000000	          0.00000000	          0.00033073	          0.00000000	
          1.71300000	         20.92233258	        948.16688457	         60.15631479	         -0.16560608	          0.00000000	         -0.01203485	         -0.01098729	          0.21963075	          0.02531289	          0.00021194	          0.00000000	          0.00005769	          0.00000000	         -2.44088417	          0.00000000	          0.00000000	          0.00052315	          0.00000000	
          1.71400000	         21.58936473	        950.35668236	         60.36047765	         -0.16538817	          0.00000000	         -0.01207741	         -0.01265144	          0.23953217	          0.02733088	          0.00022632	          0.00000000	          0.00006155	          0.00000000	         -2.46002480	          0.00000000	          0.00000000	          0.00073129	          0.00000000	
          1.71500000	         22.27154562	        952.56031002	         60.56765774	         -0.16517310	          0.00000000	         -0.01211929	         -0.01441799	          0.26029368	          0.02942353	          0.00024111	          0.00000000	          0.00006551	          0.00000000	         -2.47950756	          0.00000000	          0.00000000	          0.00095576	          0.00000000	
          1.71600000	         22.96894719	        954.77715880	         60.77769692	         -0.16496085	          0.00000000	         -0.01216051	         -0.01628914	          0.28190948	          0.03158912	          0.00025627	          0.00000000	          0.00006956	          0.00000000	         -2.49931620	          0.00000000	          0.00000000	          0.00119713	          0.00000000	
          1.71700000	         23.68163388	        957.00661423	         60.99042564	         -0.16475136	          0.00000000	         -0.01220108	         -0.01826691	          0.30436965	          0.03382548	          0.00027179	          0.00000000	          0.00007371	          0.00000000	         -2.51943389	          0.00000000	          0.00000000	          0.00145599	          0.00000000	
          1.71800000	         24.40966126	        959.24805687	         61.20566316	         -0.16454459	          0.00000000	         -0.01224102	         -0.02035301	          0.32765993	          0.03612996	          0.00028762	          0.00000000	          0.00007794	          0.00000000	         -2.53984281	          0.00000000	          0.00000000	          0.00173290	          0.00000000	
          1.71900000	         25.15307494	        961.50086311	         61.42321828	         -0.16434050	          0.00000000	         -0.01228035	         -0.02254891	          0.35176124	          0.03849938	          0.00030374	          0.00000000	          0.00008223	          0.00000000	         -2.56052386	          0.00000000	          0.00000000	          0.00202837	          0.00000000	
          1.72000000	         25.91191020	        963.76440560	         61.64289058	         -0.16413905	          0.00000000	         -0.01231907	         -0.02485574	          0.37664943	          0.04092997	          0.00032010	          0.00000000	          0.00008659	          0.00000000	         -2.58145675	          0.00000000	          0.00000000	          0.00234293	          0.00000000	
          1.72100000	         26.68619223	        966.03805293	         61.86447232	         -0.16394018	          0.00000000	         -0.01235722	         -0.02727428	          0.40229483	          0.04341738	          0.00033666	          0.00000000	          0.00009100	          0.00000000	         -2.60262026	          0.00000000	          0.00000000	          0.00267704	          0.00000000	
          1.72200000	         27.47593691	        968.32116885	         62.08775069	         -0.16374387	          0.00000000	         -0.01239479	         -0.02980492	          0.42866188	          0.04595664	          0.00035337	          0.00000000	          0.00009544	          0.00000000	         -2.62399288	          0.00000000	          0.00000000	          0.00303114	          0.00000000	
          1.72300000	         28.28115172	        970.61311111	         62.31250991	         -0.16355008	          0.00000000	         -0.01243180	         -0.03244763	          0.45570876	          0.04854205	          0.00037017	          0.00000000	          0.00009989	          0.00000000	         -2.64555338	          0.00000000	          0.00000000	          0.00340563	          0.00000000	
          1.72400000	         29.10183648	        972.91323088	         62.53853260	         -0.16335875	          0.00000000	         -0.01246826	         -0.03520191	          0.48338694	          0.05116724	          0.00038701	          0.00000000	          0.00010435	          0.00000000	         -2.66728135	          0.00000000	          0.00000000	          0.00380086	          0.00000000	
          1.72500000	         29.93798351	        975.22087284	         62.76560043	         -0.16316985	          0.00000000	         -0.01250417	         -0.03806675	          0.51164077	          0.05382506	          0.00040381	          0.00000000	          0.00010879	          0.00000000	         -2.68915728	          0.00000000	          0.00000000	          0.00421711	          0.00000000	
          1.72600000	         30.78957708	        977.53537597	         62.99349414	         -0.16298334	          0.00000000	         -0.01253953	         -0.04104059	          0.54040705	          0.05650756	          0.00042050	          0.00000000	          0.00011320	          0.00000000	         -2.71116233	          0.00000000	          0.00000000	          0.00465463	          0.00000000	
          1.72700000	         31.65659205	        979.85607402	         63.22199353	         -0.16279918	          0.00000000	         -0.01257436	         -0.04412129	          0.56961461	          0.05920597	          0.00043701	          0.00000000	          0.00011755	          0.00000000	         -2.73327791	          0.00000000	          0.00000000	          0.00511358	          0.00000000	
          1.72800000	         32.53899230	        982.18229525	         63.45087785	         -0.16261733	          0.00000000	         -0.01260864	         -0.04730604	          0.59918383	          0.06191061	          0.00045325	          0.00000000	          0.00012181	          0.00000000	         -2.75548524	          0.00000000	          0.00000000	          0.00559405	          0.00000000	
          1.72900000	         33.43672948	        984.51336079	         63.67992656	         -0.16243775	          0.00000000	         -0.01264238	         -0.05059136	          0.62902620	          0.06461089	          0.00046912	          0.00000000	          0.00012597	          0.00000000	         -2.77776528	          0.00000000	          0.00000000	          0.00609608	          0.00000000	
          1.73000000	         34.34974261	        986.84858240	         63.90892035	         -0.16226041	          0.00000000	         -0.01267560	         -0.05397303	          0.65904384	          0.06729526	          0.00048454	          0.00000000	          0.00013000	          0.00000000	         -2.80009889	          0.00000000	          0.00000000	          0.00661958	          0.00000000	
          1.73100000	         35.27795855	        989.18726003	         64.13764233	         -0.16208526	          0.00000000	         -0.01270830	         -0.05744605	          0.68912909	          0.06995116	          0.00049938	          0.00000000	          0.00013386	          0.00000000	         -2.82246728	          0.00000000	          0.00000000	          0.00716438	          0.00000000	
